<svg xmlns="http://www.w3.org/2000/svg" xmlns:xlink="http://www.w3.org/1999/xlink" version="1" width="700" height="700"><defs><linearGradient id="b"><stop offset="0" stop-opacity=".366"/><stop offset=".229" stop-opacity=".33"/><stop offset="1" stop-opacity="0"/></linearGradient><linearGradient id="a"><stop offset="0" stop-color="#fff"/><stop offset="1" stop-color="#d5d5d5" stop-opacity="0"/></linearGradient><linearGradient x1="-50.912" y1="-134.132" x2="531.744" y2="-134.132" id="d" xlink:href="#a" gradientUnits="userSpaceOnUse"/><radialGradient xlink:href="#b" id="c" cx="-2401.335" cy="-49.279" fx="-2401.335" fy="-49.279" r="217.789" gradientTransform="matrix(1 0 0 .299 2769.385 620.558)" gradientUnits="userSpaceOnUse"/><radialGradient xlink:href="#b" id="j" cx="368.05" cy="605.838" fx="368.05" fy="605.838" r="217.789" gradientTransform="matrix(1 0 0 .299 0 424.874)" gradientUnits="userSpaceOnUse"/></defs><path d="M585.84 605.838c0 35.928-97.51 65.054-217.79 65.054-120.282 0-217.79-29.126-217.79-65.054s97.508-65.054 217.79-65.054c120.28 0 217.79 29.126 217.79 65.054z" id="e" opacity=".758" fill="url(#c)" fill-rule="evenodd" stroke-width=".3"/><path d="M645.21 301.03a291.328 291.328 0 1 1-582.656 0 291.328 291.328 0 1 1 582.656 0z" id="f" fill="#313131" fill-rule="evenodd" stroke-width=".3"/><path d="M440.762 349.08c29.14 8.132 54.99 6.282 67.118 19.984 25.102 28.355 15.22 50.102 2.45 64.29-27.096 30.1-60.302 16.555-72.71.17-18.416-24.315-5.125-45.425-15.577-67.418-6.72-14.144-35.7-31.048-45.91-19.914-18.365 20.027-16.902 28.8-9.143 46.96 7.64 17.88 41.91 29.94 31.45 70.42-6.84 26.477-34.743 39.503-54.37 36.007-43.667-7.78-38.118-48.48-37.304-54.064 5.49-37.67 26.602-31.85 32.565-46.174 9.42-22.62 7.4-43.726-2.83-53.867-18.432-18.272-40.164 8.45-42.196 10.796-15.966 18.434-5.195 44.665-24.31 72.123-20.557 29.533-56.19 16.696-67.162 4.33-27.49-30.978-11.57-60.213 6.233-72.364 22.318-15.233 50.515-2.595 66.752-16.596 11.004-9.49 27.974-15.008 17.556-42.08-6.205-16.125-21.08-10.962-33.383-10.795-22.76.322-43.027 34.933-64.916 33.85-39.877-1.97-53.708-18.226-53.708-54.403 6.678-32.28 40.292-44.47 53.43-41.185 26.714 6.68 45.637 40.072 60.107 38.96 14.47-1.114 32.472 11.93 42.3-15.584 5.564-15.584-1.032-27.212-17.254-36.177-11.962-6.608-38.404-1.668-69.57-19.478-13.94-7.965-26.716-53.43 0-73.466 26.714-20.036 50.09-10.018 65.673 2.226 15.583 12.245 11.13 55.656 16.696 70.127 5.565 14.47 31.167 34.505 45.637 23.374 14.47-11.13 11.775-34.275 6.68-47.864-10.02-26.715-34.377-22.067-27.83-67.9 3.34-23.375 24.49-38.96 51.204-36.733 26.716 2.226 46.752 34.507 38.96 57.882-11.13 33.393-30.054 33.393-34.506 52.316-4.453 18.923-3.34 41.185 7.792 46.75 11.13 5.566 34.506 0 43.41-17.81 8.906-17.81-3.338-52.316 26.716-75.69 30.054-23.377 60.108-4.454 66.787 7.79 6.677 12.245 22.26 47.865-8.906 66.788-31.167 18.923-35.62-1.114-62.335 13.357-26.715 14.47-33.394 27.83-25.602 42.3 7.79 14.47 24.488 18.922 46.75 8.904 22.263-10.018 33.394-28.94 61.222-28.94 27.828 0 45.638 21.148 43.41 51.203-1.65 22.312-21.148 46.75-52.315 42.298-24.267-3.467-34.507-30.054-64.56-36.733-20.71-4.602-35.69 1.89-39.795 12.662-5.565 14.61 10.978 35.373 25.292 39.367z" id="g" fill="#72ff01" fill-rule="evenodd"/><path id="h" d="M390.704 283.695a34.507 34.507 0 1 1-69.014 0 34.507 34.507 0 1 1 69.014 0z" fill="#313131" stroke-linecap="round" stroke-miterlimit="11.2"/><path d="M531.744-134.132a291.328 291.328 0 1 1-582.656 0 291.328 291.328 0 1 1 582.656 0z" id="i" transform="matrix(0 .857 -.917 0 231.073 65.745)" fill="url(#d)" fill-rule="evenodd" stroke-width=".3"/><use xlink:href="#e"/><use xlink:href="#f"/><use xlink:href="#g"/><use xlink:href="#h"/><use xlink:href="#i"/><use xlink:href="#e" fill="url(#j)"/><use xlink:href="#f"/><use xlink:href="#g"/><use xlink:href="#h"/><use xlink:href="#i"/></svg>