<svg xmlns="http://www.w3.org/2000/svg" width="815.436" height="500" viewBox="0 0 652.34863 400"><path d="M204.606 0h.024c12.657 6.5 25.948 11.533 38.874 17.445 9.455 4.618 20.5 2.542 30.175 6.598 24.188 8.38 41.365 33.253 40.34 58.884-.05 27.292-20.794 52.654-47.427 58.274-23.456 5.743-49.55-4.544-63.136-24.408-14.293-19.84-14.806-48.256-1.22-68.585 8.575-13.56 22.77-22.625 38.14-26.657-10.874-5.13-21.942-9.822-33.084-14.318-10.824 27.88-22.82 55.342-33.205 83.343 10.824 22.65 24.14 44.15 35.795 66.41 29.516-3.567 59.13-5.986 88.67-9.407 13.51-25.802 26.95-51.628 40.803-77.234-16.932-21.38-34.55-42.197-51.31-63.698 1.27-.196 3.763-.562 5.033-.758 17.787 20.647 34.28 42.466 51.847 63.332-14.074 27.927-28.978 55.464-43.565 83.123-31.372 3.15-62.77 6.108-94.07 9.846-11.97-21.65-23.772-43.346-35.77-64.97-1.05-2.59-3.47-5.375-2.15-8.307C180.663 59.105 193.758 29.98 204.607 0z" fill="#ffc905"/><g fill="#78a22f"><path d="M0 68.487c50.333 4.35 100.568 9.97 150.925 14.342-.317 2.638-1.88 5.57-.244 8.11 6.745 14.515 14.368 28.613 20.745 43.297-36.26 2.004-72.494 3.812-108.73 6.035 7.38 65.36 13.684 130.842 20.916 196.25 39.852-.733 79.752-.953 119.603-2.175-.024 13.732.195 27.488-.147 41.22C147.7 383.532 92.432 392.327 37.016 400 26.17 299.114 14.685 198.302 3.74 97.44 2.932 87.74 1.198 78.14 0 68.488zM347.053 100.544c30.64-1.784 61.328-2.688 91.992-4.3-4.276 66.02-8.894 131.99-12.852 198.008-4.423.44-8.87.88-13.317 1.295-4.275-17.42-8.33-34.915-13.07-52.214-18.62-1.71-37.214-3.592-55.807-5.522-6.843 20.696-13.733 41.367-20.697 62.037-5.644-1.344-11.263-2.712-16.932-3.958 1.882-42.442 4.35-84.858 6.06-127.3 0-4.08 1.98-7.72 3.86-11.214 10.41-18.863 20.378-37.97 30.763-56.832m-4.643 120.163c19.205-1.026 38.434-1.832 57.64-2.614-5.72-25.166-11.045-50.43-16.738-75.622-7.06-.218-15.1-3.322-21.6-1.05-6.743 26.34-12.95 52.85-19.302 79.287zM238.568 175.14c13.78-.514 27.56-1.32 41.366-1.345 2.346 38.556 4.57 77.112 7.012 115.668-17.958-.464-35.892-1.832-53.875-2.443 1.882-37.286 3.74-74.596 5.498-111.88z"/></g><path d="M507.8 328.312c2.346-3.665 4.814-7.232 7.355-10.775 1.808.05 5.424.122 7.232.17-4.422 4.13-7.6 11.192-14.587 10.605zM233.315 342.142c.122-12.804 20.182-14.587 24.36-3.348-1.71 5.962-6.646.245-8.942-2.003-2.004-.097-6.036-.268-8.04-.366-1.245 3.3-3.737 7.013-1.1 10.384 6.134 7.648 18.937 10.898 19.5 22.162.66 6.597-4.936 10.58-9.823 13.633-8.332 1.295-15.564-3.03-19.864-10.017 1.05-.636 3.152-1.955 4.202-2.59 3.25 2.736 5.79 8.283 10.824 7.55 5.644.61 11.435-6.475 7.892-11.582-5.01-9.04-19.327-11.923-19.01-23.822zM269.257 332.393c1.246-.025 3.738-.123 4.984-.17.416 12.63-.805 25.41.587 37.968 1.295 7.405 9.847 7.087 15.638 7.624 2.59-2.614 5.815-5.13 5.986-9.162.856-12.046.197-24.116.27-36.162 1.27-.048 3.836-.097 5.106-.122-.66 13.17 1.075 26.51-1.026 39.558-3.494 14.49-27.78 13.78-30.59-.684-2.004-12.828-.343-25.924-.953-38.85zM317.684 332.148c4.08-.268 8.16-.488 12.24-.635 3.03 3.323 9.115 6.475 4.032 11.044-1.637-1.466-4.935-4.422-6.572-5.913-2.004-.024-6.01-.098-8.014-.122-.782 3.103-3.592 6.62-1.27 9.724 5.497 7.648 16.76 10.41 19.473 20.11 2.345 8.77-6.304 17.37-14.93 16.125-6.914.49-11.02-5.643-14.415-10.603 1.54-.562 3.08-1.1 4.618-1.66 3.2 3.297 6.45 8.966 11.948 7.133 4.69-.293 8.942-5.913 6.914-10.408-4.03-8.04-13.707-10.97-18.35-18.497-3.004-5.815-.268-12.314 4.326-16.297zM343.46 332.393c8.992-.294 18.008-.025 27.024-.098 1.418 7.525-6.865 4.25-11.337 4.935v43.932h-4.886v-43.907c-4.08-.782-13.73 2.64-10.8-4.862zM376.788 332.32c9.65.024 19.303-.27 28.954.293-.244 1.05-.684 3.127-.904 4.178-7.697.83-15.442.245-23.14.44.05 5.058.075 10.14.148 15.223 7.745-.05 15.49-.074 23.236.024l-.17 4.862h-23.14c-.024 6.28-.024 12.558-.097 18.837 7.965.147 15.93-.048 23.896.318-.195 1.075-.56 3.25-.757 4.35-9.31.732-18.69.195-28.025.292.05-16.272.05-32.545 0-48.818zM413.536 331.562c11.557 12.34 22.16 25.557 33.547 38.067.05-12.437 0-24.898.025-37.335h4.886c-.048 16.615.074 33.205-.048 49.82-11.948-11.973-22.26-25.484-33.694-37.945.293 12.338.098 24.702.146 37.04-1.246-.024-3.714-.073-4.96-.12.098-16.494-.073-33.01.098-49.528zM459.324 332.295H486.2v4.838c-3.713.05-7.402.17-11.092.244.27 14.587.074 29.198.123 43.785h-4.935c-.024-14.66.098-29.32-.098-43.98-3.616 0-7.256.024-10.873.048v-4.935zM539.662 331.88c3.323-.367 5.497.904 6.548 3.81 5.106 11.387 9.846 22.944 15.002 34.33 5.84-12.29 11.19-24.775 16.395-37.31 1.515-.17 4.52-.464 6.01-.635-7.794 16.493-13.78 33.89-22.625 49.87-7.306-16.616-14.27-33.353-21.33-50.065zM591.803 332.32c9.65 0 19.302-.27 28.93.268-.246 1.1-.783 3.25-1.027 4.325-7.648.61-15.345.146-22.992.317.05 5.058.073 10.14.146 15.223 7.77-.05 15.54-.098 23.334.073l-.317 4.838c-7.697-.025-15.393-.025-23.09-.025-.024 6.303-.024 12.582-.073 18.862 7.672.195 15.368-.293 23.04.39.245 1.05.758 3.177 1.002 4.252-9.627.562-19.302.27-28.93.318 0-16.297.025-32.57-.023-48.843zM628.404 332.466c1.246-.073 3.763-.196 5.01-.27 0 14.686.048 29.346-.026 44.03 6.304.05 12.632.05 18.96.05v4.886c-7.965 0-15.93.024-23.895 0 .024-16.248.122-32.472-.05-48.696zM489.182 381.308c8.234-16.42 15.564-33.278 23.92-49.624 7.966 16.493 15.54 33.18 23.188 49.844-9.04 1.027-8.992-10.653-13.097-16.224-6.94 0-13.878.025-20.792-.048-2.565 5.082-4.886 10.262-7.11 15.49-1.54.147-4.57.416-6.108.562m23.09-36.283c-2.737 5.033-5.156 10.213-7.72 15.32l16.076.073c-2.908-4.765-3.274-13.243-8.356-15.393z" opacity=".98"/></svg>