<svg width="2048pt" height="508pt" viewBox="0 0 2048 508" xmlns="http://www.w3.org/2000/svg"><g fill="#fff"><path d="M1961.34 55.18c5.21.65 10.38 1.6 15.57 2.43-17.77 100.77-35.73 201.5-53.61 302.26-4.3-.97-8.6-1.97-12.93-2.7 15.11-91.21 30.69-182.35 45.99-273.53 1.74-9.48 2.97-19.04 4.98-28.46zM1958.46 322.99c14.8-87.5 29.45-175.03 44.34-262.53 5.23.94 10.48 1.82 15.67 3.08-15.97 89.63-31.82 179.27-47.76 268.91-1.84 11.01-4.11 21.96-5.69 33.02-4.32-.86-8.6-1.88-12.96-2.47 1.47-13.43 4.46-26.65 6.4-40.01z"/></g><g fill="#7ba3a5"><path d="M1879.41 387.01c21.33-123.81 42.64-247.63 64.08-371.42 34.48 5.97 69.01 11.59 103.51 17.46-.02 10.81-3.06 21.3-4.66 31.93-20.11 112.72-40.22 225.45-60.3 338.17l-.25.54c-9.36-.39-18.47-2.97-27.73-4.21-24.89-4.16-49.75-8.43-74.65-12.47m81.93-331.83c-2.01 9.42-3.24 18.98-4.98 28.46-15.3 91.18-30.88 182.32-45.99 273.53 4.33.73 8.63 1.73 12.93 2.7 17.88-100.76 35.84-201.49 53.61-302.26-5.19-.83-10.36-1.78-15.57-2.43m-2.88 267.81c-1.94 13.36-4.93 26.58-6.4 40.01 4.36.59 8.64 1.61 12.96 2.47 1.58-11.06 3.85-22.01 5.69-33.02 15.94-89.64 31.79-179.28 47.76-268.91-5.19-1.26-10.44-2.14-15.67-3.08-14.89 87.5-29.54 175.03-44.34 262.53zM321.59 59.54c27.75.07 55.5.1 83.26-.03.63 47.85-.03 95.72.3 143.57 16.63-17.83 38.55-31.5 62.9-35.25 17.82-2.56 36.61-1.43 53.26 5.83 13.29 5.68 24.29 16.04 31.65 28.4 9.59 15.85 13.55 34.57 13.81 52.94 0 42.09.08 84.19-.04 126.29 9.34 2.2 18.82 3.82 28.2 5.82 2.99.66 6.31 2.71 6.66 6.03.56 5.59-.03 11.22.39 16.82.22 2.44.03 4.88-.43 7.29-26.03-.37-52.08-.06-78.11-.16.07-50.71 0-101.42.03-152.13.16-12.17-.66-24.65-5.18-36.09-4.22-10.59-12.63-19.74-23.42-23.76-14.46-5.28-30.6-5.04-45.23-.52-17.04 5.28-31.47 16.67-43.45 29.6-1.38 1.21-.97 3.2-1.12 4.83.07 47.5-.03 95 .06 142.5 9 1.88 18.07 3.45 27.07 5.37 3.6.59 7.56 3.1 7.64 7.13.42 7.59.37 15.22.34 22.83-37.87.65-75.76-.1-113.63.38.08-7.77-.21-15.55.08-23.32.18-3.85 3.78-6.36 7.32-6.89 9.19-1.77 18.37-3.62 27.52-5.63.11-77.12.01-154.25.04-231.37-.08-18.38.17-36.77-.12-55.15-11.13-1.52-22.25-3.32-33.25-5.59-3.49-.56-6.38-3.62-6.43-7.19-.15-7.51.03-15.03-.12-22.55zM1478.32 81.95c-.13-7.48.01-14.96-.02-22.43 26.07.09 52.15.16 78.22-.04.15 107.3.09 214.6.03 321.91 8.78 1.93 17.63 3.59 26.46 5.33 3.53.59 8.02 2.33 8.54 6.4.43 7.89-.06 15.81.26 23.71-29.58.6-59.18.09-88.76.26-8.22-.2-16.48.38-24.65-.25-.28-7.6-.16-15.24-.03-22.84-.08-4.54 4.75-6.87 8.66-7.29 8.75-1.71 17.55-3.29 26.22-5.39-.14-57.42-.02-114.85-.06-172.28.09-37.91-.17-75.81.14-113.71-9.96-2.66-20.31-3.63-30.2-6.52-3.03-.81-4.85-3.84-4.81-6.86zM103.68 82.78C128.93 70.64 157.11 65.41 185 65.2c16.85-.42 33.65 2.01 50 5.9 20.99 4.49 41.29 11.63 61.48 18.78.4 27.21.1 54.43.16 81.65-8.22-.07-16.43-.01-24.64-.03-4.72.26-8.73-3.91-9.17-8.46-1.58-9.9-1.95-19.96-2.79-29.94-.54-4.75-.2-9.61-1.57-14.23-6.87-1.47-13.48-3.92-20.33-5.42-24.47-5.83-50.05-9.31-75.09-5.31-16.37 2.2-32.3 7.87-46.3 16.66-15.01 9.62-27.73 22.68-37.22 37.75C65.8 184.77 59.59 211.04 59.19 237c-.83 23.08 2.02 46.52 10.47 68.13 11.92 30.54 36.3 56.81 67.41 68.13 22.94 8.22 47.92 8.46 71.85 5.28 13.04-1.39 25.25-6.73 36.65-12.97 8.61-4.75 16.6-10.55 23.97-17.05 3.01-2.94 7.66-4.22 11.65-2.65 3.9 2.27 6.56 6.06 9.62 9.28 3.97 4.65 8.52 8.77 12.29 13.59-15.98 18.28-36.27 32.89-59.1 41.28-16.95 6.3-34.88 9.81-52.92 10.67-31.14 2.05-63.28-2.24-91.42-16.26-31.78-15.64-57.11-43.09-71.88-75.12C13.4 298.12 9.1 263.05 10.96 229c1.89-32.79 11.34-65.65 30.36-92.69 15.81-22.73 37.36-41.54 62.36-53.53zM1734.31 69.24c3.35-3.19 8.15-4.16 12.65-4.05 14.66.1 29.32-.14 43.98.13-17.54 19.04-34.79 38.35-52.3 57.41-4.38 5.18-9.32 11.29-16.66 11.68-9.64.15-19.29-.02-28.92.09 9.88-16.83 20.44-33.26 30.56-49.95 3.37-5.22 6.12-10.98 10.69-15.31zM1697.2 166.17c10.58-.93 21.21-.06 31.8.42 12.03.99 24.43 2.52 35.26 8.28 14.65 7.12 26.55 19.42 33.73 33.99 5.14 10.34 8.08 21.67 9.44 33.1 1.38 10.31.83 20.71.93 31.07-.05 36.19.1 72.38-.08 108.57 8.93 1.82 17.89 3.52 26.82 5.37 3.26.43 4.56 4.06 4.55 6.94.16 7.52-.02 15.03.04 22.55-16.54-.16-33.08-.07-49.62-.06-4.54.06-9.59-.23-13.09-3.45-2.37-2.03-2.97-5.21-3.68-8.06-1.58-7.04-3.21-14.08-4.26-21.22-13 10.76-26.12 21.76-41.48 29.04-8.93 4.22-18.57 7.47-28.54 7.58-12.11.12-24.29-.21-36.25-2.22-17.48-3.1-33.04-14.4-42.04-29.59-4.93-8.2-7.19-17.91-6.77-27.43.35-9.81 1.31-19.84 5.13-28.98 5.69-13.91 17.9-23.89 30.69-31.08 16.59-9.26 35.16-14.32 53.74-17.76 20.51-3.42 41.32-4.98 62.12-4.65-.31-13.12.91-26.43-1.87-39.36-1.4-7.12-3.73-14.18-7.8-20.24-5.11-7.71-13.15-13.4-22.08-15.75-10.36-3.14-21.36-2.65-31.95-1.21-11.27 1.69-22.37 5.54-31.64 12.26-6 4.21-12.13 8.31-18.74 11.49-3.55 1.74-8.01 1.18-11.05-1.31-5.78-4.68-9.9-11.03-13.59-17.39-.88-1.16-.88-2.79.42-3.65 10.38-9.89 21.81-18.78 34.37-25.74 10.96-5.99 22.97-10.44 35.49-11.51m-10.01 149.96c-8.59 3.42-17.21 7.67-23.35 14.8-6.35 6.58-8.67 16.07-8.12 25 .52 8.68 2.9 17.82 9.37 24.03 8.11 7.88 20.01 10.11 30.95 9.71 26.68.32 51.94-13.41 69.41-33 .44-16.84.11-33.75.15-50.61-26.36.3-53.28 1.28-78.41 10.07zM699.35 172.69c18.31-6.15 38.07-7.4 57.17-4.98 20.52 2.88 40.53 11.78 55.12 26.7 11.18 10.73 18.65 24.75 23.62 39.3 4.09 13.02 6.36 26.67 6.19 40.34-.03 5.53.56 11.38-1.76 16.57-1.58 2.53-4.76 3.83-7.67 3.78-54.91-.08-109.81.06-164.72-.08.13 18.86 3.57 38.1 12.5 54.88 5.73 10.44 13.66 19.85 23.92 26.06 15.79 9.86 35.16 12.14 53.37 10.31 9.22-.5 18.02-3.59 26.59-6.8 9.45-3.65 18.19-8.82 26.81-14.08 4.44-2.94 11.2-3.46 14.97.85 4.49 5.42 8.54 11.2 13.05 16.62-9.98 12.66-24.16 21.28-38.91 27.34-21.08 8.3-43.98 11.83-66.58 10.55-21.29-1.09-42.5-7.64-60-19.97-11.75-8.46-22.03-19.17-29.28-31.76-11.23-18.5-16.96-39.91-18.85-61.36-1.48-19.05-.78-38.46 4.32-56.97 5.46-19.93 15.44-38.92 30.35-53.39 11.34-10.71 25-18.96 39.79-23.91m-8.89 44.76c-13.14 13.12-18.99 31.48-21.96 49.38 3.81.63 7.67.48 11.52.45 40.84-.01 81.68 0 122.52-.01.07-20.28-6.24-42.14-22.46-55.39-13.65-11.8-32.74-14.75-50.17-12.69-14.7 1.37-29.29 7.31-39.45 18.26zM913.96 178.03c13.88-7.24 29.48-10.65 45.04-11.37 19.07-.42 38.59 2.06 55.92 10.46 2.94 1.34 5.63 3.83 9.09 3.54 21.41-.06 42.82-.05 64.22-.02-.03 6.12.42 12.27-.15 18.38-.89 5.14-6.32 7.54-10.97 8.15-8.94 1.26-17.91 2.36-26.85 3.6 5.45 10.89 8.29 23.05 8.08 35.23.21 16.74-4.73 33.84-15.39 46.93-9.11 12.03-22.27 20.48-36.28 25.72-20.76 7.55-43.58 8.24-65.2 4.47-3.28-.28-6.96-3-9.91-.57-4.5 3.09-8.67 6.88-11.4 11.66-2.94 5.26-3.24 12.23.28 17.3 3.28 4.49 8.63 6.71 13.73 8.45 9 2.72 18.45 3.53 27.79 4.34 24.76.97 49.73 1.51 74.06 6.74 15.46 3.61 31.44 10.72 40.08 24.72 7.03 10.61 7.34 23.88 6.3 36.13-2.08 15.41-10.13 29.49-20.86 40.55-18.5 18.35-43.88 28.29-69.37 31.87-9.98 1.71-20.13 1.34-30.2 1.38-13.82.13-27.61-1.68-41.03-4.88-14.92-4.07-29.86-9.76-41.65-20.06-13.06-10.71-21.16-27.73-19.27-44.74.68-12.24 6.78-23.95 16.16-31.78 7.54-6.68 16.71-11.1 25.9-15.02-7.85-4.09-15.41-9.73-19.15-18.01-3.87-9.51-4.51-20.65-.34-30.17 5.1-11.8 14.93-21.06 25.91-27.42 1.96-.66 1.36-2.28-.28-2.83-18.49-10.81-31.91-30.07-35-51.34-1.67-13.58-1.22-27.73 3.58-40.67 6.48-17.73 20.18-32.57 37.16-40.74m38.54 20.85c-9.72 1.44-19.22 5.42-26.35 12.31-9.68 9.13-13.94 22.72-13.79 35.78-.25 10.27 3 20.47 8.54 29.06 5.72 8.49 14.72 14.32 24.31 17.6 11.62 3.52 24.14 3.68 36.04 1.46 13.78-2.61 26.76-11.1 33.01-23.9 6.01-12.7 6.87-27.73 2.79-41.13-3.28-11.58-11.82-21.46-22.67-26.61-13-5.96-27.9-6.59-41.88-4.57m-47.84 215.79c-9.31 11.69-9.15 30.23 1.45 41.08 10.32 10.27 24.94 14.59 38.99 16.74 16.59 2.22 33.52 2.07 50.05-.59 13.73-2.79 27.94-7.54 37.89-17.88 7.84-7.96 11.88-20.06 8.79-31-1.94-7.49-8.79-12.34-15.59-15.14-8.25-3.14-16.98-4.88-25.75-5.69-23.79-3.02-47.94-1.9-71.65-5.68-9.18 4.33-17.75 10.23-24.18 18.16zM1209.45 167.78c20.55-2.53 41.79-1.35 61.54 5.17 19.1 6.39 36.6 18.07 48.96 34.07 9.34 11.68 15.7 25.49 20.09 39.73 7.2 24.65 7.83 50.89 4.04 76.18-3.38 19.81-10.53 39.31-22.78 55.41-7.3 9.94-16.62 18.3-27.07 24.8-19.06 12.04-41.85 17.2-64.22 17.16-18.89.25-38.05-2.9-55.19-11.06-18.49-8.54-34.42-22.7-44.77-40.26-11.43-18.63-17.22-40.32-18.58-62.03-.41-15.99-.8-32.21 2.87-47.89 4.76-23.65 15.77-46.58 33.6-63.12 16.74-15.77 38.83-25.22 61.51-28.16m12.16 33.21c-15.56 1.16-31.35 6.82-42.17 18.43-8.05 7.6-13.23 17.65-16.84 27.99-4.5 13.7-6.36 28.16-6.5 42.54-.29 20.48 1.71 41.63 10.76 60.29 8.43 17.81 25.62 31.22 45.09 34.6 19.6 3.48 41.3 1.68 58.08-9.86 14.91-10.48 23.48-27.76 27.56-45.12 4.88-22.04 4.86-45.04 1.09-67.25-3.55-17.84-10.92-36.04-25.32-47.87-14.27-11.75-33.74-15.18-51.75-13.75zM1877.24 405.3c3.21 1.45 6.69 2.03 10.19 2.46 30.65 5.41 61.34 10.56 91.98 16.07-13.22 17.88-27.06 35.29-40.48 53.02-6.78-.31-13.34-2.22-20.03-3.16-6.86-.99-13.64-2.43-20.5-3.36-7.45-20.14-13.6-40.76-20.84-60.98-.46-1-.95-1.98-1.46-2.92.28-.29.85-.85 1.14-1.13zM1902.25 477.41c9.64 1.62 19.37 2.69 29.04 4.12-3.52 6.21-8.33 11.54-12.31 17.44-2.15 2.88-3.84 6.2-6.82 8.34-3.16-10.02-7.1-19.78-9.91-29.9z"/></g></svg>